<svg id="svg" version="1.1" xmlns="http://www.w3.org/2000/svg" xmlns:xlink="http://www.w3.org/1999/xlink" width="400" height="400" viewBox="0, 0, 400,400"><g id="svgg"><path id="path0" d="M378.000 60.820 C 364.331 63.750,341.560 69.325,329.006 72.814 C 326.494 73.513,317.187 76.092,313.000 77.250 C 312.120 77.494,310.950 77.848,310.400 78.039 C 309.850 78.229,308.410 78.647,307.200 78.968 C 304.211 79.761,295.323 82.377,289.000 84.326 C 275.160 88.591,270.019 90.237,257.800 94.313 C 242.698 99.352,230.331 103.721,216.900 108.764 C 215.195 109.404,212.360 110.463,210.600 111.117 C 206.570 112.615,196.805 116.455,192.600 118.195 C 190.840 118.924,186.250 120.817,182.400 122.402 C 178.550 123.987,174.450 125.715,173.288 126.242 C 172.127 126.769,171.097 127.200,171.000 127.200 C 170.903 127.200,169.873 127.628,168.712 128.152 C 167.550 128.675,164.440 130.051,161.800 131.210 C 157.173 133.241,153.956 134.711,145.400 138.707 C 143.200 139.735,135.370 143.578,128.000 147.247 C 120.630 150.917,111.900 155.146,108.600 156.645 C 41.329 187.210,-0.841 228.048,11.016 251.150 C 16.933 262.681,42.475 272.499,77.800 276.822 C 84.101 277.593,85.215 276.215,79.400 274.843 C 74.441 273.673,64.223 268.995,59.108 265.553 C 43.039 254.741,41.145 237.530,54.488 223.572 C 59.042 218.808,72.178 207.473,77.402 203.800 C 78.027 203.360,78.958 202.569,79.470 202.042 C 79.981 201.514,80.400 201.227,80.400 201.403 C 80.400 201.579,80.736 201.335,81.147 200.861 C 81.558 200.388,82.098 200.000,82.347 200.000 C 82.596 200.000,82.800 199.827,82.800 199.615 C 82.800 199.403,83.925 198.471,85.300 197.543 C 86.675 196.615,87.860 195.708,87.933 195.528 C 88.007 195.347,88.239 195.200,88.450 195.200 C 88.836 195.200,89.400 194.797,90.829 193.500 C 91.253 193.115,91.761 192.800,91.957 192.800 C 92.154 192.800,92.428 192.504,92.567 192.143 C 92.705 191.781,92.911 191.578,93.023 191.690 C 93.136 191.803,93.781 191.378,94.456 190.747 C 95.132 190.116,95.936 189.600,96.242 189.600 C 96.549 189.600,96.800 189.420,96.800 189.200 C 96.800 188.980,96.961 188.800,97.158 188.800 C 97.354 188.800,98.080 188.273,98.770 187.628 C 99.460 186.984,100.559 186.220,101.212 185.930 C 101.865 185.641,102.400 185.269,102.400 185.102 C 102.400 184.936,102.670 184.800,103.000 184.800 C 103.330 184.800,103.600 184.620,103.600 184.400 C 103.600 184.180,103.851 184.000,104.157 184.000 C 104.464 184.000,104.822 183.719,104.954 183.375 C 105.086 183.031,105.376 182.861,105.597 182.998 C 105.819 183.135,106.000 183.057,106.000 182.824 C 106.000 182.591,106.227 182.400,106.504 182.400 C 106.781 182.400,107.232 182.040,107.507 181.600 C 107.782 181.160,108.275 180.800,108.603 180.800 C 108.932 180.800,109.200 180.620,109.200 180.400 C 109.200 180.180,109.470 180.000,109.800 180.000 C 110.130 180.000,110.400 179.820,110.400 179.600 C 110.400 179.380,110.670 179.200,111.000 179.200 C 111.330 179.200,111.600 179.020,111.600 178.800 C 111.600 178.580,111.870 178.400,112.200 178.400 C 112.530 178.400,112.800 178.220,112.800 178.000 C 112.800 177.780,113.070 177.600,113.400 177.600 C 113.730 177.600,114.000 177.420,114.000 177.200 C 114.000 176.980,114.270 176.800,114.600 176.800 C 114.930 176.800,115.200 176.620,115.200 176.400 C 115.200 176.180,115.470 176.000,115.800 176.000 C 116.130 176.000,116.400 175.820,116.400 175.600 C 116.400 175.380,116.670 175.200,117.000 175.200 C 117.330 175.200,117.600 175.020,117.600 174.800 C 117.600 174.580,117.836 174.400,118.125 174.400 C 118.413 174.400,119.036 174.040,119.508 173.600 C 119.980 173.160,120.644 172.800,120.983 172.800 C 121.322 172.800,121.600 172.620,121.600 172.400 C 121.600 172.180,121.870 172.000,122.200 172.000 C 122.530 172.000,122.800 171.820,122.800 171.600 C 122.800 171.380,122.993 171.200,123.229 171.200 C 123.464 171.200,123.929 170.928,124.261 170.596 C 124.593 170.264,125.030 170.095,125.232 170.220 C 125.435 170.345,125.600 170.257,125.600 170.024 C 125.600 169.791,125.793 169.600,126.029 169.600 C 126.264 169.600,126.729 169.328,127.061 168.996 C 127.393 168.664,127.830 168.495,128.032 168.620 C 128.235 168.745,128.400 168.657,128.400 168.424 C 128.400 168.191,128.678 168.000,129.017 168.000 C 129.356 168.000,130.020 167.640,130.492 167.200 C 130.964 166.760,131.677 166.400,132.075 166.400 C 132.474 166.400,132.800 166.220,132.800 166.000 C 132.800 165.780,133.160 165.600,133.600 165.600 C 134.040 165.600,134.400 165.420,134.400 165.200 C 134.400 164.980,134.760 164.800,135.200 164.800 C 135.640 164.800,136.000 164.620,136.000 164.400 C 136.000 164.180,136.283 164.000,136.629 164.000 C 136.974 164.000,137.529 163.728,137.861 163.396 C 138.193 163.064,138.630 162.895,138.832 163.020 C 139.035 163.145,139.200 163.057,139.200 162.824 C 139.200 162.591,139.560 162.400,140.000 162.400 C 140.440 162.400,140.800 162.220,140.800 162.000 C 140.800 161.780,141.160 161.600,141.600 161.600 C 142.040 161.600,142.400 161.420,142.400 161.200 C 142.400 160.980,142.760 160.800,143.200 160.800 C 143.640 160.800,144.000 160.620,144.000 160.400 C 144.000 160.180,144.345 160.000,144.767 160.000 C 145.188 160.000,145.593 159.833,145.667 159.630 C 145.740 159.426,146.070 159.201,146.400 159.130 C 146.730 159.058,147.092 158.879,147.204 158.732 C 147.316 158.585,147.672 158.405,147.994 158.332 C 148.317 158.259,148.825 157.973,149.123 157.696 C 149.421 157.419,149.830 157.295,150.032 157.420 C 150.235 157.545,150.400 157.457,150.400 157.224 C 150.400 156.991,150.760 156.800,151.200 156.800 C 151.640 156.800,152.000 156.620,152.000 156.400 C 152.000 156.180,152.360 156.000,152.800 156.000 C 153.240 156.000,153.600 155.820,153.600 155.600 C 153.600 155.380,153.960 155.200,154.400 155.200 C 154.840 155.200,155.200 155.020,155.200 154.800 C 155.200 154.580,155.344 154.400,155.519 154.400 C 155.825 154.400,163.763 150.282,169.156 147.325 C 174.857 144.201,201.234 131.138,210.600 126.802 C 211.920 126.191,215.316 124.590,218.148 123.245 C 220.979 121.900,223.348 120.800,223.412 120.800 C 223.476 120.800,224.850 120.193,226.464 119.450 C 229.567 118.024,235.322 115.435,238.500 114.036 C 239.545 113.576,241.165 112.859,242.100 112.443 C 244.022 111.588,253.088 107.708,258.800 105.296 C 260.890 104.413,266.020 102.300,270.200 100.600 C 274.380 98.900,278.340 97.275,279.000 96.989 C 281.636 95.848,293.399 91.336,302.600 87.937 C 304.360 87.286,306.790 86.389,308.000 85.942 C 309.210 85.495,311.190 84.764,312.400 84.317 C 320.524 81.316,335.204 76.348,346.400 72.811 C 350.690 71.456,354.650 70.191,355.200 70.000 C 356.778 69.451,368.956 65.926,374.600 64.384 C 383.473 61.960,385.404 61.302,385.529 60.662 C 385.704 59.767,382.609 59.833,378.000 60.820 M295.240 313.633 C 288.164 315.023,282.422 322.310,282.405 329.923 C 282.371 344.791,299.513 352.466,310.700 342.592 C 313.713 339.932,313.614 339.663,308.625 336.961 L 307.050 336.108 305.690 337.428 C 299.793 343.155,289.600 338.576,289.600 330.200 C 289.600 321.727,299.474 317.113,305.655 322.697 C 307.086 323.990,307.357 324.095,308.087 323.638 C 308.540 323.356,309.560 322.763,310.355 322.320 C 313.390 320.629,313.424 320.401,311.004 317.911 C 307.268 314.067,301.290 312.445,295.240 313.633 M231.944 314.035 C 231.735 314.164,231.617 315.694,231.682 317.435 L 231.800 320.600 235.894 320.714 L 239.989 320.828 240.094 333.514 L 240.200 346.200 243.600 346.200 L 247.000 346.200 247.200 333.600 L 247.400 321.000 251.600 320.800 L 255.800 320.600 255.916 317.300 L 256.032 314.000 246.316 313.944 C 240.972 313.914,235.638 313.869,234.462 313.844 C 233.286 313.820,232.153 313.906,231.944 314.035 M259.344 314.201 C 259.260 314.421,259.238 321.711,259.295 330.401 L 259.400 346.200 269.400 346.200 L 279.400 346.200 279.400 342.800 L 279.400 339.400 272.900 339.290 L 266.400 339.180 266.400 336.433 C 266.400 333.079,266.353 333.101,273.379 333.242 L 278.200 333.338 278.200 329.969 L 278.200 326.600 272.400 326.400 L 266.600 326.200 266.600 323.600 L 266.600 321.000 273.000 320.800 L 279.400 320.600 279.501 317.524 C 279.556 315.832,279.427 314.340,279.214 314.209 C 278.517 313.778,259.509 313.770,259.344 314.201 M316.969 314.138 C 316.871 314.393,316.838 321.711,316.895 330.401 L 317.000 346.200 320.138 346.318 C 324.537 346.482,324.445 346.624,324.327 339.841 C 324.203 332.793,323.778 333.307,329.688 333.358 L 334.600 333.400 334.800 339.800 L 335.000 346.200 338.400 346.200 L 341.800 346.200 341.905 330.226 C 341.987 317.713,341.900 314.184,341.505 313.933 C 340.901 313.550,337.794 313.501,336.060 313.848 L 334.820 314.096 334.710 320.148 L 334.600 326.200 329.500 326.312 L 324.400 326.424 324.359 321.712 C 324.337 319.120,324.349 316.433,324.387 315.740 C 324.424 315.048,324.231 314.343,323.958 314.174 C 323.109 313.649,317.168 313.618,316.969 314.138 " stroke="none" fill="#f5ed0c" fill-rule="evenodd"></path><path id="path1" d="M76.800 106.187 C 76.800 136.497,76.853 139.155,77.451 138.925 C 77.809 138.788,88.114 134.221,100.351 128.777 L 122.600 118.878 122.716 115.639 L 122.832 112.400 130.270 112.400 L 137.708 112.400 173.954 95.229 C 193.889 85.784,212.450 76.975,215.200 75.653 L 220.200 73.250 148.500 73.225 L 76.800 73.200 76.800 106.187 M341.600 87.833 C 308.293 97.856,302.875 99.557,288.200 104.601 C 280.720 107.172,271.306 110.408,267.280 111.791 C 258.495 114.810,259.554 113.682,259.688 119.873 L 259.800 125.056 282.200 116.063 C 304.598 107.070,304.602 107.069,334.400 97.628 L 364.200 88.186 364.316 84.693 C 364.404 82.035,364.308 81.209,363.916 81.237 C 363.632 81.257,353.590 84.225,341.600 87.833 M360.400 97.665 C 358.310 98.315,347.960 101.436,337.400 104.599 L 318.200 110.350 330.513 110.375 L 342.827 110.400 351.513 108.160 C 356.291 106.928,361.145 105.655,362.300 105.332 L 364.400 104.743 364.400 100.572 C 364.400 98.277,364.355 96.418,364.300 96.441 C 364.245 96.463,362.490 97.014,360.400 97.665 M292.800 120.026 C 286.310 122.433,276.770 125.960,271.600 127.864 C 266.430 129.768,261.615 131.570,260.900 131.868 L 259.600 132.411 259.600 138.595 L 259.600 144.780 260.500 144.425 C 260.995 144.230,269.860 140.626,280.200 136.416 C 290.540 132.207,300.395 128.196,302.100 127.503 L 305.200 126.243 305.200 120.921 C 305.200 117.995,305.065 115.611,304.900 115.624 C 304.735 115.638,299.290 117.618,292.800 120.026 M282.000 143.000 L 259.800 151.123 259.691 158.162 C 259.631 162.033,259.671 165.200,259.780 165.200 C 259.889 165.200,270.108 160.540,282.489 154.845 L 305.000 144.490 305.112 139.645 C 305.199 135.900,305.108 134.809,304.712 134.838 C 304.431 134.859,294.210 138.532,282.000 143.000 M282.300 161.309 L 259.600 171.784 259.600 179.692 C 259.600 184.041,259.663 187.600,259.740 187.600 C 259.818 187.600,270.078 182.567,282.540 176.415 L 305.200 165.231 305.200 158.015 C 305.200 154.047,305.155 150.808,305.100 150.817 C 305.045 150.827,294.785 155.548,282.300 161.309 M142.200 161.528 C 133.620 165.877,124.890 170.482,122.800 171.764 C 114.060 177.121,93.475 191.527,82.600 199.896 L 77.000 204.206 76.906 239.103 L 76.813 274.000 99.806 274.000 L 122.800 274.000 122.814 234.900 L 122.828 195.800 157.814 174.838 C 177.056 163.309,192.800 153.814,192.800 153.738 C 192.800 153.662,184.925 153.605,175.300 153.611 L 157.800 153.623 142.200 161.528 M164.838 174.713 L 128.676 195.800 144.320 195.905 L 159.964 196.009 167.682 191.752 C 187.795 180.660,211.459 167.624,215.700 165.301 L 220.400 162.726 220.400 158.163 L 220.400 153.600 210.700 153.613 L 201.000 153.626 164.838 174.713 M193.938 181.102 L 167.676 195.800 186.283 195.904 L 204.890 196.008 212.634 190.304 L 220.379 184.600 220.390 175.500 C 220.395 170.495,220.355 166.401,220.300 166.402 C 220.245 166.402,208.382 173.017,193.938 181.102 M282.100 183.321 L 259.600 194.597 259.600 202.673 L 259.600 210.749 268.500 206.172 C 273.395 203.655,283.652 198.401,291.294 194.497 L 305.188 187.400 305.194 179.700 C 305.197 175.465,305.065 172.010,304.900 172.022 C 304.735 172.035,294.475 177.119,282.100 183.321 M215.221 192.200 L 210.292 196.000 215.346 196.000 L 220.400 196.000 220.400 192.200 C 220.400 190.110,220.344 188.400,220.275 188.400 C 220.206 188.400,217.932 190.110,215.221 192.200 M282.000 204.594 L 259.800 216.298 259.697 245.149 L 259.595 274.000 282.397 274.000 L 305.200 274.000 305.200 256.176 C 305.200 246.373,305.065 238.431,304.900 238.526 C 304.735 238.620,299.290 241.806,292.800 245.603 C 286.310 249.401,280.820 252.601,280.600 252.713 C 279.026 253.517,283.621 250.190,300.890 238.023 L 305.181 235.000 305.190 225.100 C 305.196 219.655,305.109 215.200,304.998 215.200 C 304.887 215.200,296.472 219.378,286.298 224.486 C 276.124 229.593,267.260 233.997,266.600 234.272 C 264.646 235.088,262.789 236.210,291.500 219.221 L 305.200 211.114 305.200 201.957 C 305.200 194.874,305.087 192.810,304.700 192.844 C 304.425 192.869,294.210 198.156,282.000 204.594 M58.400 330.000 L 58.400 346.400 62.000 346.400 L 65.600 346.400 65.600 340.400 L 65.600 334.400 71.800 334.400 L 78.000 334.400 78.000 330.800 L 78.000 327.200 71.783 327.200 L 65.566 327.200 65.683 324.100 L 65.800 321.000 71.900 320.890 L 78.000 320.779 78.000 317.190 L 78.000 313.600 68.200 313.600 L 58.400 313.600 58.400 330.000 M82.400 325.750 C 82.400 338.898,82.536 339.930,84.640 342.688 C 88.812 348.158,99.402 348.636,104.456 343.582 C 107.429 340.609,107.600 339.625,107.600 325.512 L 107.600 313.570 103.900 313.685 L 100.200 313.800 100.000 325.659 C 99.815 336.607,99.741 337.582,99.036 338.360 C 97.263 340.319,93.062 340.323,91.107 338.369 L 90.000 337.262 90.000 326.063 C 90.000 312.412,90.385 313.600,85.957 313.600 L 82.400 313.600 82.400 325.750 M110.800 317.186 L 110.800 320.772 114.900 320.886 L 119.000 321.000 119.106 333.700 L 119.211 346.400 122.800 346.400 L 126.389 346.400 126.494 333.700 L 126.600 321.000 130.700 320.886 L 134.800 320.772 134.800 317.186 L 134.800 313.600 122.800 313.600 L 110.800 313.600 110.800 317.186 M138.075 326.300 C 138.199 338.912,138.207 339.013,139.192 340.942 C 143.339 349.062,157.793 349.135,162.114 341.057 C 162.968 339.460,163.004 338.933,163.121 326.500 L 163.241 313.600 159.648 313.600 L 156.054 313.600 155.927 325.368 L 155.800 337.137 154.826 338.173 C 152.815 340.313,148.749 340.411,146.707 338.369 L 145.600 337.262 145.600 325.431 L 145.600 313.600 141.775 313.600 L 137.949 313.600 138.075 326.300 M168.800 329.963 L 168.800 346.400 172.400 346.400 L 176.000 346.400 176.000 340.978 L 176.000 335.556 177.883 335.678 L 179.766 335.800 182.783 341.089 L 185.800 346.378 189.700 346.389 C 191.845 346.395,193.600 346.287,193.600 346.148 C 193.600 346.010,192.139 343.376,190.353 340.295 L 187.107 334.695 189.008 333.070 C 195.189 327.786,193.716 318.160,186.200 314.727 C 184.384 313.898,183.493 313.801,176.500 313.670 L 168.800 313.526 168.800 329.963 M197.600 330.000 L 197.600 346.400 207.800 346.400 L 218.000 346.400 218.000 342.800 L 218.000 339.200 211.400 339.200 L 204.800 339.200 204.800 336.411 L 204.800 333.621 210.700 333.511 L 216.600 333.400 216.716 329.900 L 216.831 326.400 210.797 326.400 L 204.763 326.400 204.882 323.700 L 205.000 321.000 211.300 320.890 L 217.600 320.780 217.600 317.190 L 217.600 313.600 207.600 313.600 L 197.600 313.600 197.600 330.000 M183.794 321.433 C 188.001 324.189,185.147 329.200,179.369 329.200 L 176.000 329.200 176.000 325.000 L 176.000 320.800 179.414 320.800 C 181.854 320.800,183.104 320.981,183.794 321.433 " stroke="none" fill="#2d3492" fill-rule="evenodd"></path><path id="path2" d="M0.000 200.000 L 0.000 400.000 200.000 400.000 L 400.000 400.000 400.000 200.000 L 400.000 0.000 200.000 0.000 L 0.000 0.000 0.000 200.000 M385.774 59.831 C 387.087 61.144,385.908 61.632,371.360 65.802 C 351.758 71.420,336.236 76.364,319.200 82.415 C 316.010 83.548,312.950 84.622,312.400 84.802 C 311.850 84.982,309.870 85.701,308.000 86.400 C 306.130 87.099,304.150 87.817,303.600 87.994 C 303.050 88.171,300.440 89.156,297.800 90.182 C 295.160 91.208,290.660 92.957,287.800 94.068 C 284.940 95.179,282.060 96.324,281.400 96.613 C 280.740 96.902,279.480 97.397,278.600 97.712 C 276.741 98.379,262.560 104.146,260.200 105.194 C 259.320 105.586,256.350 106.852,253.600 108.009 C 247.538 110.560,233.407 116.765,227.159 119.618 C 218.663 123.499,218.038 123.792,203.000 130.912 C 195.660 134.387,172.598 146.017,165.091 150.029 L 158.783 153.400 175.999 153.600 L 193.216 153.800 158.008 174.952 L 122.800 196.105 122.800 235.250 L 122.800 274.396 101.400 274.298 C 80.453 274.202,78.449 274.276,81.500 275.029 C 82.727 275.333,83.023 275.600,83.127 276.500 C 83.272 277.766,81.294 277.990,76.824 277.214 C 75.601 277.001,71.990 276.442,68.800 275.971 C 28.190 269.971,6.192 256.985,8.467 240.355 C 11.937 214.977,54.363 179.853,112.200 154.475 C 114.180 153.606,120.935 150.309,127.210 147.148 C 133.486 143.986,140.506 140.515,142.810 139.434 C 154.322 134.033,163.937 129.698,173.000 125.823 C 178.500 123.472,183.540 121.305,184.200 121.008 C 184.860 120.711,186.390 120.106,187.600 119.664 C 188.810 119.222,191.510 118.155,193.600 117.293 C 204.372 112.849,231.819 102.560,240.400 99.749 C 241.390 99.425,242.560 99.002,243.000 98.810 C 243.440 98.617,244.880 98.117,246.200 97.698 C 247.520 97.279,254.270 95.039,261.200 92.719 C 268.130 90.399,275.690 87.923,278.000 87.217 C 280.310 86.510,284.540 85.210,287.400 84.328 C 293.001 82.599,301.684 80.019,306.200 78.741 C 307.740 78.306,309.585 77.780,310.300 77.574 C 311.015 77.369,312.185 77.043,312.900 76.852 C 313.615 76.661,317.170 75.654,320.800 74.616 C 330.840 71.743,353.423 65.900,362.800 63.748 C 381.411 59.478,384.837 58.894,385.774 59.831 M220.357 73.376 C 220.260 73.473,216.945 75.072,212.990 76.929 C 209.036 78.786,203.460 81.427,200.600 82.799 C 197.740 84.171,194.140 85.882,192.600 86.601 C 191.060 87.320,187.730 88.891,185.200 90.093 C 182.670 91.295,170.840 96.903,158.911 102.556 L 137.222 112.835 130.911 112.799 C 127.440 112.780,124.195 112.772,123.700 112.782 C 122.845 112.799,122.800 112.957,122.800 115.915 L 122.800 119.030 100.500 128.899 C 88.235 134.327,77.885 138.884,77.500 139.027 C 76.837 139.272,76.800 137.544,76.800 106.243 L 76.800 73.200 148.667 73.200 C 188.193 73.200,220.454 73.279,220.357 73.376 M364.284 88.249 C 364.204 88.330,350.832 92.602,334.569 97.744 L 305.000 107.092 282.504 116.146 C 270.131 121.126,259.857 125.200,259.673 125.200 C 259.489 125.200,259.352 122.749,259.369 119.753 L 259.400 114.305 280.800 106.930 C 295.913 101.722,311.307 96.819,333.200 90.244 L 364.200 80.933 364.316 84.518 C 364.379 86.489,364.365 88.168,364.284 88.249 M364.400 100.710 L 364.400 105.021 352.900 107.941 L 341.400 110.861 329.700 110.766 C 323.265 110.714,318.000 110.553,318.000 110.409 C 318.000 110.195,363.117 96.509,364.100 96.426 C 364.265 96.411,364.400 98.340,364.400 100.710 M305.600 120.727 L 305.600 126.254 282.787 135.542 C 270.240 140.651,259.829 144.741,259.651 144.632 C 259.474 144.522,259.345 141.682,259.364 138.321 L 259.400 132.209 265.200 130.059 C 268.390 128.876,278.650 125.066,288.000 121.591 C 297.350 118.116,305.135 115.257,305.300 115.237 C 305.465 115.216,305.600 117.687,305.600 120.727 M305.512 139.453 L 305.400 144.507 297.600 148.081 C 293.310 150.048,283.230 154.690,275.200 158.398 C 267.170 162.105,260.330 165.198,260.000 165.269 C 259.364 165.408,258.921 152.272,259.530 151.334 C 259.762 150.976,304.460 134.459,305.312 134.416 C 305.484 134.407,305.574 136.674,305.512 139.453 M305.600 158.015 L 305.600 165.229 282.700 176.545 C 269.412 183.112,259.689 187.695,259.536 187.465 C 259.390 187.247,259.300 183.633,259.336 179.434 L 259.400 171.800 261.200 170.882 C 265.021 168.933,304.627 150.829,305.100 150.815 C 305.482 150.804,305.600 152.502,305.600 158.015 M220.736 158.209 L 220.616 162.817 213.208 166.875 C 202.523 172.729,180.501 184.860,169.688 190.850 L 160.375 196.009 144.368 195.905 L 128.361 195.800 164.480 174.719 L 200.600 153.637 210.728 153.619 L 220.857 153.600 220.736 158.209 M220.755 175.412 L 220.785 184.424 212.990 190.212 L 205.196 196.000 186.318 196.000 C 175.195 196.000,167.596 195.853,167.820 195.642 C 168.029 195.445,178.280 189.655,190.600 182.776 C 202.920 175.897,214.620 169.338,216.600 168.202 C 218.580 167.065,220.318 166.195,220.462 166.268 C 220.607 166.341,220.738 170.456,220.755 175.412 M305.508 179.500 L 305.400 187.400 298.398 191.000 C 294.547 192.980,285.637 197.548,278.598 201.152 C 271.559 204.756,264.510 208.401,262.934 209.252 C 261.357 210.103,259.896 210.800,259.686 210.800 C 259.174 210.800,259.067 195.585,259.574 194.809 C 259.911 194.293,304.502 171.688,305.308 171.624 C 305.478 171.611,305.568 175.155,305.508 179.500 M220.737 192.185 L 220.798 196.000 215.519 196.000 C 212.094 196.000,210.377 195.863,210.630 195.610 C 211.688 194.552,220.231 188.137,220.438 188.246 C 220.569 188.314,220.703 190.087,220.737 192.185 M305.600 201.737 L 305.600 211.074 302.900 212.672 C 299.838 214.485,282.778 224.588,275.107 229.132 C 272.306 230.791,270.059 232.192,270.113 232.246 C 270.166 232.300,278.077 228.396,287.693 223.572 C 297.308 218.747,305.274 214.800,305.394 214.800 C 305.515 214.800,305.566 219.341,305.507 224.891 L 305.400 234.982 294.716 242.591 C 288.840 246.776,283.890 250.361,283.716 250.559 C 283.434 250.878,286.792 249.088,287.800 248.382 C 289.294 247.334,304.864 238.400,305.195 238.400 C 305.475 238.400,305.575 244.185,305.504 256.300 L 305.400 274.200 282.400 274.200 L 259.400 274.200 259.308 245.323 L 259.216 216.445 263.908 213.968 C 266.489 212.605,270.040 210.728,271.800 209.797 C 273.560 208.866,279.590 205.698,285.200 202.758 C 290.810 199.817,297.470 196.306,300.000 194.956 C 302.530 193.605,304.825 192.477,305.100 192.450 C 305.487 192.411,305.600 194.508,305.600 201.737 M74.352 206.704 C 73.115 207.747,70.151 210.220,67.765 212.200 C 49.986 226.952,46.044 232.927,46.484 244.461 C 46.940 256.417,56.889 266.468,74.500 272.766 L 76.800 273.589 76.800 239.194 C 76.800 220.277,76.755 204.802,76.700 204.804 C 76.645 204.806,75.588 205.661,74.352 206.704 M306.881 314.502 C 309.934 316.011,313.816 319.537,313.500 320.514 C 313.299 321.135,308.005 324.377,307.170 324.390 C 306.823 324.396,306.103 323.926,305.570 323.347 C 300.031 317.334,290.423 321.679,290.416 330.200 C 290.409 338.705,300.899 342.994,305.963 336.556 L 306.797 335.495 309.299 336.780 C 314.367 339.384,314.524 340.082,310.753 343.239 C 300.262 352.023,284.355 346.343,282.276 333.071 C 280.051 318.863,294.160 308.215,306.881 314.502 M78.400 317.400 L 78.400 321.200 72.200 321.200 L 66.000 321.200 66.000 324.200 L 66.000 327.200 72.000 327.200 L 78.000 327.200 78.000 330.960 L 78.000 334.720 72.300 334.750 C 69.165 334.766,66.470 334.784,66.311 334.790 C 66.152 334.795,65.972 337.455,65.911 340.700 L 65.800 346.600 62.000 346.600 L 58.200 346.600 58.096 330.100 L 57.991 313.600 68.196 313.600 L 78.400 313.600 78.400 317.400 M90.000 324.974 C 90.000 338.971,90.213 339.600,94.961 339.600 C 99.818 339.600,100.000 339.073,100.000 325.005 L 100.000 313.571 103.900 313.686 L 107.800 313.800 107.923 324.353 C 108.066 336.629,107.766 339.354,105.982 341.969 C 100.601 349.854,86.621 348.735,82.925 340.123 C 82.277 338.615,81.606 315.604,82.167 314.142 C 82.322 313.738,83.348 313.600,86.187 313.600 L 90.000 313.600 90.000 324.974 M135.200 317.400 L 135.200 321.200 131.006 321.200 L 126.811 321.200 126.706 333.900 L 126.600 346.600 122.800 346.600 L 119.000 346.600 118.894 333.900 L 118.789 321.200 114.594 321.200 L 110.400 321.200 110.400 317.400 L 110.400 313.600 122.800 313.600 L 135.200 313.600 135.200 317.400 M145.600 324.740 C 145.600 338.850,145.852 339.600,150.600 339.600 C 155.392 339.600,155.600 338.990,155.600 324.974 L 155.600 313.600 159.392 313.600 C 164.090 313.600,163.691 312.305,163.528 327.038 L 163.400 338.600 162.256 340.929 C 157.886 349.829,141.253 348.965,138.476 339.694 C 138.153 338.618,138.000 334.163,138.000 325.854 L 138.000 313.600 141.800 313.600 L 145.600 313.600 145.600 324.740 M187.200 315.041 C 194.739 319.293,195.095 328.869,187.908 334.097 C 187.277 334.556,187.510 335.102,190.602 340.400 C 192.463 343.590,193.990 346.316,193.993 346.459 C 194.004 346.860,186.671 346.840,186.040 346.437 C 185.732 346.240,184.191 343.856,182.615 341.139 L 179.750 336.200 178.087 336.078 L 176.424 335.955 176.312 341.278 L 176.200 346.600 172.400 346.600 L 168.600 346.600 168.496 330.071 L 168.391 313.542 176.696 313.671 L 185.000 313.800 187.200 315.041 M218.000 317.400 L 218.000 321.200 211.600 321.200 L 205.200 321.200 205.200 323.700 L 205.199 326.200 210.900 326.200 L 216.600 326.200 216.715 329.900 L 216.830 333.600 211.015 333.600 L 205.200 333.600 205.200 336.400 L 205.200 339.200 211.815 339.200 L 218.430 339.200 218.315 342.900 L 218.200 346.600 207.800 346.600 L 197.400 346.600 197.296 330.100 L 197.191 313.600 207.596 313.600 L 218.000 313.600 218.000 317.400 M256.320 316.592 C 256.521 321.237,256.550 321.200,252.625 321.200 C 247.506 321.200,248.000 319.828,248.000 334.035 L 248.000 346.385 247.099 346.611 C 246.603 346.735,244.758 346.784,242.999 346.719 L 239.800 346.600 239.600 334.000 L 239.400 321.400 235.400 321.200 L 231.400 321.000 231.285 317.294 L 231.170 313.589 243.685 313.694 L 256.200 313.800 256.320 316.592 M279.915 317.300 L 279.800 321.000 273.600 321.200 L 267.400 321.400 267.280 323.700 L 267.160 326.000 272.737 326.000 C 279.144 326.000,278.803 325.779,278.794 329.933 C 278.785 333.760,278.951 333.656,272.756 333.733 L 267.400 333.800 267.281 336.300 C 267.215 337.675,267.305 338.810,267.481 338.822 C 267.656 338.835,270.343 338.856,273.452 338.869 C 280.306 338.898,279.925 338.675,280.032 342.727 C 280.147 347.103,280.891 346.830,269.173 346.707 L 259.000 346.600 258.896 330.100 L 258.791 313.600 269.411 313.600 L 280.030 313.600 279.915 317.300 M324.890 319.700 L 325.000 325.800 329.368 325.914 C 334.711 326.054,334.386 326.482,334.394 319.300 L 334.400 313.600 338.391 313.600 L 342.382 313.600 342.491 329.820 C 342.557 339.687,342.451 346.189,342.220 346.420 C 341.706 346.934,334.914 346.908,334.594 346.390 C 334.455 346.165,334.309 343.240,334.270 339.890 L 334.200 333.800 329.600 333.800 L 325.000 333.800 324.889 339.983 C 324.760 347.187,325.028 346.786,320.343 346.794 C 315.996 346.802,316.399 348.471,316.405 330.467 C 316.412 311.780,315.934 313.600,320.836 313.600 L 324.779 313.600 324.890 319.700 M176.400 324.712 C 176.400 329.354,176.208 329.172,180.741 328.816 C 184.282 328.539,185.200 327.748,185.200 324.978 C 185.200 321.949,184.003 321.030,179.835 320.859 L 176.400 320.718 176.400 324.712 " stroke="none" fill="#fbfbfb" fill-rule="evenodd"></path><path id="path3" d="M376.200 60.787 C 372.240 61.620,368.370 62.503,367.600 62.749 L 366.200 63.197 367.600 63.001 C 368.370 62.894,369.720 62.646,370.600 62.450 C 382.026 59.910,385.764 59.462,385.529 60.662 C 385.404 61.302,383.473 61.960,374.600 64.384 C 368.956 65.926,356.778 69.451,355.200 70.000 C 354.650 70.191,350.690 71.456,346.400 72.811 C 337.067 75.760,330.592 77.916,321.200 81.202 C 317.350 82.549,313.438 83.916,312.506 84.239 C 310.320 84.998,307.158 86.471,308.200 86.244 C 308.640 86.148,310.080 85.674,311.400 85.190 C 329.687 78.481,349.695 72.012,371.360 65.802 C 385.908 61.632,387.087 61.144,385.774 59.831 C 384.934 58.991,384.551 59.029,376.200 60.787 M363.800 63.475 C 362.563 63.756,341.422 69.076,337.614 70.064 C 335.751 70.547,334.422 71.007,334.660 71.087 C 334.899 71.166,336.782 70.775,338.847 70.218 C 340.911 69.660,347.370 68.033,353.200 66.602 C 365.036 63.697,366.575 63.279,365.400 63.287 C 364.960 63.290,364.240 63.375,363.800 63.475 M326.400 73.022 C 322.990 73.999,318.763 75.190,317.007 75.668 C 315.251 76.147,314.018 76.606,314.268 76.689 C 314.517 76.772,317.214 76.135,320.261 75.272 C 323.307 74.409,327.600 73.209,329.800 72.606 C 332.000 72.003,333.875 71.439,333.967 71.354 C 334.482 70.877,331.894 71.447,326.400 73.022 M311.600 77.200 C 311.103 77.521,311.138 77.588,311.800 77.588 C 312.240 77.588,312.870 77.413,313.200 77.200 C 313.697 76.879,313.662 76.812,313.000 76.812 C 312.560 76.812,311.930 76.987,311.600 77.200 M309.103 77.831 C 308.976 77.957,307.641 78.393,306.136 78.797 C 302.675 79.729,294.139 82.248,287.400 84.328 C 284.540 85.210,280.310 86.510,278.000 87.217 C 271.878 89.089,248.703 96.823,248.000 97.229 C 246.810 97.916,248.045 97.541,259.434 93.756 C 270.182 90.184,275.649 88.440,289.000 84.326 C 295.273 82.393,303.996 79.826,307.728 78.815 C 310.602 78.037,311.467 77.600,310.133 77.600 C 309.693 77.600,309.230 77.704,309.103 77.831 M304.600 87.200 C 303.720 87.607,303.270 87.941,303.600 87.941 C 303.930 87.941,304.920 87.607,305.800 87.200 C 306.680 86.793,307.130 86.459,306.800 86.459 C 306.470 86.459,305.480 86.793,304.600 87.200 M301.534 88.199 C 301.424 88.309,298.199 89.581,294.367 91.025 C 283.507 95.119,279.033 96.890,278.620 97.260 C 277.960 97.851,279.120 97.640,280.904 96.844 C 282.520 96.124,287.211 94.279,297.788 90.203 C 302.743 88.293,303.349 88.000,302.333 88.000 C 302.003 88.000,301.644 88.090,301.534 88.199 M245.000 98.061 C 244.340 98.280,243.440 98.616,243.000 98.809 C 242.560 99.002,241.390 99.425,240.400 99.749 C 231.819 102.560,204.372 112.849,193.600 117.293 C 191.510 118.155,188.810 119.222,187.600 119.664 C 186.390 120.106,184.860 120.711,184.200 121.008 C 183.540 121.305,178.500 123.472,173.000 125.823 C 163.937 129.698,154.322 134.033,142.810 139.434 C 140.506 140.515,133.486 143.986,127.210 147.148 C 120.935 150.309,114.180 153.606,112.200 154.475 C 57.327 178.553,18.462 209.458,9.363 236.249 C 3.758 252.754,19.358 265.614,54.400 273.377 C 62.910 275.263,76.287 277.326,75.567 276.642 C 75.475 276.555,73.330 276.186,70.800 275.822 C 30.877 270.084,8.800 258.245,8.800 242.573 C 8.800 218.894,50.371 183.102,108.600 156.645 C 111.900 155.146,120.630 150.917,128.000 147.247 C 135.370 143.578,143.200 139.735,145.400 138.707 C 153.956 134.711,157.173 133.241,161.800 131.210 C 164.440 130.051,167.550 128.675,168.712 128.152 C 169.873 127.628,170.903 127.200,171.000 127.200 C 171.097 127.200,172.127 126.769,173.288 126.242 C 174.450 125.715,178.550 123.987,182.400 122.402 C 186.250 120.817,190.840 118.924,192.600 118.195 C 196.741 116.481,206.536 112.628,210.500 111.153 C 212.205 110.519,215.040 109.460,216.800 108.800 C 224.161 106.040,227.071 104.983,236.200 101.756 C 241.480 99.890,246.160 98.204,246.600 98.009 C 247.706 97.518,246.521 97.557,245.000 98.061 M270.400 100.432 C 255.722 106.583,245.777 110.805,242.000 112.489 C 241.010 112.930,239.390 113.647,238.400 114.082 C 235.430 115.387,229.591 118.013,226.464 119.450 C 224.850 120.193,223.476 120.800,223.412 120.800 C 223.348 120.800,220.979 121.900,218.148 123.245 C 215.316 124.590,211.920 126.191,210.600 126.802 C 200.880 131.302,175.754 143.756,168.854 147.494 C 166.954 148.523,163.600 150.314,161.400 151.474 C 159.200 152.634,157.622 153.587,157.893 153.591 C 158.164 153.596,162.484 151.425,167.493 148.768 C 175.422 144.560,198.363 133.080,206.600 129.198 C 208.140 128.472,211.290 126.987,213.600 125.898 C 225.892 120.101,242.277 112.774,253.600 108.009 C 256.350 106.852,259.320 105.586,260.200 105.194 C 261.080 104.803,265.207 103.106,269.371 101.422 C 277.389 98.180,278.632 97.609,277.600 97.645 C 277.270 97.657,274.030 98.911,270.400 100.432 M99.000 187.435 L 97.800 188.466 99.100 187.606 C 99.815 187.133,100.400 186.668,100.400 186.573 C 100.400 186.273,100.231 186.378,99.000 187.435 M71.164 208.700 C 49.443 226.222,43.850 234.830,46.004 247.424 C 47.942 258.756,62.750 270.914,79.400 274.843 C 84.245 275.987,84.309 277.387,79.500 277.056 C 77.428 276.913,76.572 276.957,77.200 277.174 C 79.792 278.071,83.263 277.683,83.127 276.512 C 83.012 275.531,82.727 275.351,80.200 274.672 C 78.660 274.258,77.040 273.763,76.600 273.572 C 76.160 273.381,74.360 272.666,72.600 271.985 C 55.775 265.468,46.930 256.147,46.484 244.461 C 46.008 231.972,49.453 227.280,73.952 207.048 C 76.573 204.883,77.065 204.400,76.647 204.400 C 76.563 204.400,74.095 206.335,71.164 208.700 M294.400 313.351 C 288.400 315.093,283.213 320.561,282.592 325.800 L 282.403 327.400 282.945 325.557 C 286.554 313.301,302.342 308.998,311.004 317.911 C 313.424 320.401,313.390 320.629,310.355 322.320 C 309.560 322.763,308.540 323.356,308.087 323.638 C 307.357 324.095,307.086 323.990,305.655 322.697 C 299.474 317.113,289.600 321.727,289.600 330.200 C 289.600 338.576,299.793 343.155,305.690 337.428 L 307.050 336.108 308.625 336.961 C 313.614 339.663,313.713 339.932,310.700 342.593 C 308.411 344.614,306.103 345.830,303.000 346.650 L 301.000 347.178 302.673 347.031 C 306.016 346.736,311.796 343.224,313.174 340.648 C 313.838 339.408,313.228 338.799,309.299 336.780 L 306.797 335.495 305.963 336.556 C 300.899 342.994,290.409 338.705,290.416 330.200 C 290.423 321.679,300.031 317.334,305.570 323.347 C 306.853 324.740,307.308 324.680,310.572 322.690 C 314.038 320.576,314.067 320.465,311.765 318.004 C 307.725 313.684,300.197 311.667,294.400 313.351 M231.285 317.300 L 231.400 321.000 235.400 321.200 L 239.400 321.400 239.600 334.000 L 239.800 346.600 242.999 346.719 C 244.758 346.784,246.603 346.735,247.099 346.611 L 248.000 346.385 248.000 334.035 C 248.000 319.828,247.506 321.200,252.625 321.200 C 256.550 321.200,256.521 321.237,256.320 316.592 L 256.200 313.800 246.400 313.789 L 236.600 313.778 246.316 313.896 L 256.032 314.014 255.916 317.307 L 255.800 320.600 251.600 320.800 L 247.400 321.000 247.200 333.600 L 247.000 346.200 243.600 346.200 L 240.200 346.200 240.094 333.514 L 239.989 320.828 235.894 320.714 L 231.800 320.600 231.682 317.435 C 231.598 315.173,231.712 314.176,232.082 313.941 C 232.464 313.698,232.413 313.611,231.885 313.606 C 231.241 313.601,231.181 313.969,231.285 317.300 M258.896 330.100 L 259.000 346.600 269.173 346.707 C 280.891 346.830,280.147 347.103,280.032 342.727 C 279.945 339.435,279.675 338.791,278.400 338.831 C 278.070 338.842,278.212 339.016,278.716 339.218 C 279.582 339.566,279.626 339.768,279.516 342.893 L 279.400 346.200 269.400 346.200 L 259.400 346.200 259.400 329.900 C 259.400 320.935,259.263 313.600,259.096 313.600 C 258.928 313.600,258.838 321.025,258.896 330.100 M266.100 313.898 C 268.245 313.970,271.755 313.970,273.900 313.898 C 276.045 313.826,274.290 313.767,270.000 313.767 C 265.710 313.767,263.955 313.826,266.100 313.898 M279.149 314.138 C 279.411 314.454,279.555 315.899,279.498 317.638 L 279.400 320.600 273.000 320.800 L 266.600 321.000 266.600 323.600 L 266.600 326.200 272.400 326.400 L 278.200 326.600 278.427 329.800 L 278.653 333.000 278.727 330.133 C 278.838 325.764,279.181 326.000,272.737 326.000 L 267.160 326.000 267.280 323.700 L 267.400 321.400 273.600 321.200 L 279.800 321.000 279.915 317.300 C 280.015 314.073,279.945 313.600,279.366 313.600 C 278.855 313.600,278.805 313.724,279.149 314.138 M320.305 313.883 C 320.802 313.979,321.522 313.975,321.905 313.875 C 322.287 313.775,321.880 313.696,321.000 313.701 C 320.120 313.705,319.807 313.787,320.305 313.883 M323.983 314.180 C 324.248 314.499,324.431 315.264,324.390 315.880 C 324.349 316.496,324.334 319.120,324.358 321.712 L 324.400 326.424 329.500 326.312 L 334.600 326.200 334.710 320.126 C 334.818 314.208,334.843 314.049,335.710 313.881 C 336.461 313.736,336.428 313.700,335.500 313.654 L 334.400 313.600 334.394 319.300 C 334.386 326.482,334.711 326.054,329.368 325.914 L 325.000 325.800 324.890 319.700 C 324.794 314.427,324.693 313.600,324.141 313.600 C 323.628 313.600,323.597 313.715,323.983 314.180 M341.505 313.933 C 341.900 314.184,341.987 317.713,341.905 330.226 L 341.800 346.200 338.400 346.200 L 335.000 346.200 334.800 339.800 L 334.600 333.400 330.600 333.342 C 326.128 333.277,326.553 333.525,331.200 333.692 L 334.200 333.800 334.270 339.890 C 334.309 343.240,334.455 346.165,334.594 346.390 C 334.914 346.908,341.706 346.934,342.220 346.420 C 343.002 345.639,342.486 313.599,341.691 313.606 C 341.191 313.611,341.139 313.701,341.505 313.933 M316.493 330.067 C 316.382 348.470,316.011 346.800,320.210 346.800 C 325.142 346.800,324.800 347.289,324.800 340.237 C 324.800 336.044,324.949 334.011,325.280 333.680 C 325.626 333.334,325.632 333.200,325.304 333.200 C 324.392 333.200,324.230 334.302,324.327 339.841 C 324.445 346.624,324.537 346.482,320.138 346.318 L 317.000 346.200 316.793 330.400 L 316.586 314.600 316.493 330.067 M282.221 331.259 C 282.528 340.011,288.838 346.605,297.632 347.367 L 300.200 347.590 296.774 346.860 C 287.622 344.910,283.053 339.482,282.247 329.600 C 282.166 328.610,282.155 329.357,282.221 331.259 M267.100 333.476 C 265.888 333.792,266.077 339.202,267.300 339.194 C 267.930 339.190,268.043 339.088,267.678 338.857 C 267.320 338.630,267.195 337.782,267.278 336.163 L 267.400 333.800 272.400 333.581 L 277.400 333.362 272.600 333.327 C 269.960 333.308,267.485 333.375,267.100 333.476 M270.500 339.094 C 271.545 339.176,273.255 339.176,274.300 339.094 C 275.345 339.012,274.490 338.944,272.400 338.944 C 270.310 338.944,269.455 339.012,270.500 339.094 " stroke="none" fill="#faf89a" fill-rule="evenodd"></path><path id="path4" d="M327.300 110.699 C 330.105 110.768,334.695 110.768,337.500 110.699 C 340.305 110.630,338.010 110.574,332.400 110.574 C 326.790 110.574,324.495 110.630,327.300 110.699 M127.900 112.698 C 129.715 112.772,132.685 112.772,134.500 112.698 C 136.315 112.623,134.830 112.563,131.200 112.563 C 127.570 112.563,126.085 112.623,127.900 112.698 M259.371 114.532 C 259.259 114.824,259.227 116.669,259.301 118.632 L 259.435 122.200 259.518 118.333 C 259.574 115.680,259.757 114.403,260.100 114.265 C 260.492 114.107,260.489 114.056,260.087 114.032 C 259.806 114.014,259.483 114.239,259.371 114.532 M305.106 119.099 C 305.295 126.048,305.454 126.728,305.528 120.900 C 305.568 117.765,305.465 115.200,305.300 115.199 C 305.135 115.199,305.048 116.954,305.106 119.099 M259.342 137.800 C 259.341 139.780,259.408 140.640,259.492 139.712 C 259.576 138.784,259.577 137.164,259.495 136.112 C 259.412 135.060,259.343 135.820,259.342 137.800 M305.000 139.562 C 305.000 142.401,305.135 144.640,305.300 144.538 C 305.465 144.436,305.600 142.113,305.600 139.376 C 305.600 136.639,305.465 134.400,305.300 134.400 C 305.135 134.400,305.000 136.723,305.000 139.562 M305.199 158.081 C 305.090 162.195,305.139 165.422,305.310 165.251 C 305.480 165.081,305.569 161.714,305.509 157.770 L 305.398 150.600 305.199 158.081 M220.542 157.000 C 220.541 158.980,220.608 159.840,220.692 158.912 C 220.776 157.984,220.777 156.364,220.695 155.312 C 220.612 154.260,220.543 155.020,220.542 157.000 M259.355 158.600 C 259.356 161.460,259.420 162.578,259.497 161.083 C 259.574 159.589,259.574 157.249,259.496 155.883 C 259.418 154.518,259.355 155.740,259.355 158.600 M220.565 175.600 C 220.565 179.450,220.625 181.025,220.698 179.100 C 220.771 177.175,220.771 174.025,220.698 172.100 C 220.625 170.175,220.565 171.750,220.565 175.600 M305.104 176.899 C 305.293 186.567,305.442 187.496,305.522 179.500 C 305.565 175.155,305.465 171.600,305.300 171.599 C 305.135 171.599,305.047 173.984,305.104 176.899 M259.363 179.200 C 259.363 182.830,259.423 184.315,259.498 182.500 C 259.572 180.685,259.572 177.715,259.498 175.900 C 259.423 174.085,259.363 175.570,259.363 179.200 M220.520 194.000 C 220.520 195.210,220.595 195.705,220.687 195.100 C 220.778 194.495,220.778 193.505,220.687 192.900 C 220.595 192.295,220.520 192.790,220.520 194.000 M304.715 192.739 C 305.115 192.993,305.204 195.107,305.115 202.295 C 305.052 207.371,305.135 211.441,305.300 211.339 C 306.030 210.886,305.639 192.400,304.900 192.406 C 304.384 192.411,304.335 192.498,304.715 192.739 M259.365 202.000 C 259.365 205.850,259.425 207.425,259.498 205.500 C 259.571 203.575,259.571 200.425,259.498 198.500 C 259.425 196.575,259.365 198.150,259.365 202.000 M305.103 221.499 C 305.293 233.898,305.435 235.063,305.518 224.900 C 305.563 219.345,305.465 214.800,305.300 214.799 C 305.135 214.799,305.046 217.814,305.103 221.499 M259.389 245.400 C 259.389 260.800,259.439 267.042,259.500 259.271 C 259.561 251.500,259.561 238.900,259.500 231.271 C 259.439 223.642,259.389 230.000,259.389 245.400 M267.511 233.389 C 265.570 234.505,265.124 234.967,266.618 234.313 C 268.347 233.557,269.421 232.883,269.197 232.696 C 269.089 232.606,268.330 232.917,267.511 233.389 M305.296 256.106 L 305.200 274.013 282.238 273.906 C 269.609 273.848,259.360 273.935,259.462 274.100 C 259.808 274.660,305.201 274.463,305.417 273.900 C 305.522 273.625,305.560 265.480,305.500 255.800 L 305.391 238.200 305.296 256.106 M281.400 251.847 L 280.200 252.865 281.500 252.222 C 282.215 251.869,282.800 251.404,282.800 251.190 C 282.800 250.667,282.778 250.678,281.400 251.847 M80.900 274.276 C 81.285 274.376,81.915 274.376,82.300 274.276 C 82.685 274.175,82.370 274.093,81.600 274.093 C 80.830 274.093,80.515 274.175,80.900 274.276 M92.700 274.300 C 98.035 274.363,106.765 274.363,112.100 274.300 C 117.435 274.237,113.070 274.185,102.400 274.185 C 91.730 274.185,87.365 274.237,92.700 274.300 M58.193 330.100 L 58.200 346.600 59.200 346.666 C 60.073 346.723,60.086 346.706,59.304 346.538 L 58.409 346.346 58.298 329.973 L 58.187 313.600 58.193 330.100 M78.000 317.190 L 78.000 320.779 71.900 320.890 L 65.800 321.000 65.775 324.000 L 65.750 327.000 65.892 324.100 L 66.034 321.200 72.217 321.200 L 78.400 321.200 78.400 317.400 C 78.400 315.310,78.310 313.600,78.200 313.600 C 78.090 313.600,78.000 315.215,78.000 317.190 M110.483 317.300 L 110.400 321.200 114.594 321.200 L 118.789 321.200 118.894 333.900 L 119.000 346.600 119.906 346.653 C 120.649 346.697,120.668 346.674,120.012 346.526 C 119.234 346.351,119.208 345.978,119.106 333.673 L 119.000 321.000 114.915 320.886 L 110.830 320.772 110.698 317.086 L 110.566 313.400 110.483 317.300 M134.800 317.186 L 134.800 320.772 130.700 320.886 L 126.600 321.000 126.400 333.862 C 126.290 340.936,126.335 346.641,126.500 346.539 C 126.665 346.436,126.800 340.693,126.800 333.776 L 126.800 321.200 131.000 321.200 L 135.200 321.200 135.200 317.400 C 135.200 315.310,135.110 313.600,135.000 313.600 C 134.890 313.600,134.800 315.214,134.800 317.186 M155.776 324.600 C 155.776 330.760,155.832 333.224,155.899 330.076 C 155.967 326.927,155.967 321.887,155.899 318.876 C 155.831 315.864,155.776 318.440,155.776 324.600 M168.593 330.100 L 168.600 346.600 172.400 346.600 L 176.200 346.600 176.312 341.300 L 176.423 336.000 177.932 336.000 C 178.761 336.000,179.692 336.225,180.001 336.500 C 180.478 336.925,180.482 336.896,180.032 336.300 C 179.669 335.821,178.950 335.600,177.751 335.600 L 176.000 335.600 176.000 341.000 L 176.000 346.400 172.404 346.400 L 168.809 346.400 168.698 330.000 L 168.587 313.600 168.593 330.100 M197.393 330.100 L 197.400 346.600 207.800 346.600 L 218.200 346.600 218.224 342.899 L 218.248 339.198 218.109 342.799 L 217.970 346.400 207.789 346.400 L 197.609 346.400 197.498 330.000 L 197.387 313.600 197.393 330.100 M217.600 317.190 L 217.600 320.780 211.300 320.890 L 205.000 321.000 204.968 323.800 L 204.936 326.600 205.086 323.900 L 205.237 321.200 211.618 321.200 L 218.000 321.200 218.000 317.400 C 218.000 315.310,217.910 313.600,217.800 313.600 C 217.690 313.600,217.600 315.215,217.600 317.190 M82.157 319.200 C 82.157 322.170,82.220 323.385,82.297 321.900 C 82.374 320.415,82.374 317.985,82.297 316.500 C 82.220 315.015,82.157 316.230,82.157 319.200 M163.377 325.800 C 163.377 332.180,163.432 334.734,163.499 331.476 C 163.567 328.217,163.566 322.997,163.499 319.876 C 163.431 316.754,163.376 319.420,163.377 325.800 M107.774 326.400 C 107.774 332.010,107.830 334.305,107.899 331.500 C 107.968 328.695,107.968 324.105,107.899 321.300 C 107.830 318.495,107.774 320.790,107.774 326.400 M176.084 324.900 C 176.001 329.130,176.015 329.199,176.900 329.154 C 177.555 329.120,177.614 329.058,177.114 328.927 C 176.533 328.774,176.407 328.118,176.298 324.673 L 176.169 320.600 176.084 324.900 M192.909 324.800 C 192.909 325.790,192.987 326.195,193.082 325.700 C 193.178 325.205,193.178 324.395,193.082 323.900 C 192.987 323.405,192.909 323.810,192.909 324.800 M82.114 327.000 C 82.117 328.100,82.195 328.503,82.287 327.895 C 82.379 327.286,82.377 326.386,82.282 325.895 C 82.187 325.403,82.111 325.900,82.114 327.000 M208.082 326.296 C 209.558 326.373,212.078 326.373,213.682 326.297 C 215.287 326.221,214.080 326.158,211.000 326.158 C 207.920 326.157,206.607 326.219,208.082 326.296 M179.507 329.090 C 180.226 329.179,181.306 329.177,181.907 329.086 C 182.508 328.995,181.920 328.922,180.600 328.924 C 179.280 328.926,178.788 329.001,179.507 329.090 M82.114 334.600 C 82.117 335.700,82.195 336.103,82.287 335.495 C 82.379 334.886,82.377 333.986,82.282 333.495 C 82.187 333.003,82.111 333.500,82.114 334.600 M204.934 336.400 C 204.934 338.050,205.005 338.725,205.091 337.900 C 205.178 337.075,205.178 335.725,205.091 334.900 C 205.005 334.075,204.934 334.750,204.934 336.400 M65.520 340.563 C 65.454 343.952,65.535 346.641,65.700 346.539 C 65.865 346.437,66.000 343.768,66.000 340.610 C 66.000 336.390,66.133 334.813,66.500 334.665 C 66.806 334.541,66.736 334.451,66.320 334.432 C 65.712 334.403,65.626 335.060,65.520 340.563 M69.500 334.696 C 70.875 334.774,73.125 334.774,74.500 334.696 C 75.875 334.618,74.750 334.554,72.000 334.554 C 69.250 334.554,68.125 334.618,69.500 334.696 M61.500 346.682 C 61.995 346.778,62.805 346.778,63.300 346.682 C 63.795 346.587,63.390 346.509,62.400 346.509 C 61.410 346.509,61.005 346.587,61.500 346.682 M122.505 346.687 C 123.114 346.779,124.014 346.777,124.505 346.682 C 124.997 346.587,124.500 346.511,123.400 346.514 C 122.300 346.517,121.897 346.595,122.505 346.687 M187.700 346.691 C 188.525 346.778,189.875 346.778,190.700 346.691 C 191.525 346.605,190.850 346.534,189.200 346.534 C 187.550 346.534,186.875 346.605,187.700 346.691 " stroke="none" fill="#a0a3d0" fill-rule="evenodd"></path></g></svg>